<mxfile host="app.diagrams.net" modified="2024-03-01T21:40:53.155Z" agent="Mozilla/5.0 (Windows NT 10.0; Win64; x64) AppleWebKit/537.36 (KHTML, like Gecko) Chrome/122.0.0.0 Safari/537.36" version="23.1.6" etag="UZIGQH2ffDClECxhg2O_" type="device">
  <diagram id="70UbS-tTtyQ2mZ69D3ES" name="PÃ¡gina-1">
    <mxGraphModel dx="1434" dy="772" grid="1" gridSize="10" guides="1" tooltips="1" connect="1" arrows="1" fold="1" page="1" pageScale="1" pageWidth="827" pageHeight="1169" math="0" shadow="0">
      <root>
        <mxCell id="0" />
        <mxCell id="1" parent="0" />
        <mxCell id="6jt31sQKwD7-VrAKTOdv-1" value="Cliente" style="swimlane;startSize=20;horizontal=0;html=1;whiteSpace=wrap;" vertex="1" parent="1">
          <mxGeometry x="20" y="20" width="830" height="150" as="geometry">
            <mxRectangle x="10" y="10" width="40" height="80" as="alternateBounds" />
          </mxGeometry>
        </mxCell>
        <mxCell id="6jt31sQKwD7-VrAKTOdv-3" value="" style="points=[[0.145,0.145,0],[0.5,0,0],[0.855,0.145,0],[1,0.5,0],[0.855,0.855,0],[0.5,1,0],[0.145,0.855,0],[0,0.5,0]];shape=mxgraph.bpmn.event;html=1;verticalLabelPosition=bottom;labelBackgroundColor=#ffffff;verticalAlign=top;align=center;perimeter=ellipsePerimeter;outlineConnect=0;aspect=fixed;outline=standard;symbol=general;fillColor=#d5e8d4;strokeColor=#82b366;" vertex="1" parent="6jt31sQKwD7-VrAKTOdv-1">
          <mxGeometry x="30" y="55" width="40" height="40" as="geometry" />
        </mxCell>
        <mxCell id="6jt31sQKwD7-VrAKTOdv-5" value="" style="points=[[0.145,0.145,0],[0.5,0,0],[0.855,0.145,0],[1,0.5,0],[0.855,0.855,0],[0.5,1,0],[0.145,0.855,0],[0,0.5,0]];shape=mxgraph.bpmn.event;html=1;verticalLabelPosition=bottom;labelBackgroundColor=#ffffff;verticalAlign=top;align=center;perimeter=ellipsePerimeter;outlineConnect=0;aspect=fixed;outline=standard;symbol=general;fillColor=#f8cecc;strokeColor=#b85450;" vertex="1" parent="6jt31sQKwD7-VrAKTOdv-1">
          <mxGeometry x="730" y="55" width="40" height="40" as="geometry" />
        </mxCell>
        <mxCell id="6jt31sQKwD7-VrAKTOdv-16" style="edgeStyle=orthogonalEdgeStyle;rounded=0;orthogonalLoop=1;jettySize=auto;html=1;exitX=1;exitY=0.5;exitDx=0;exitDy=0;exitPerimeter=0;" edge="1" parent="6jt31sQKwD7-VrAKTOdv-1" source="6jt31sQKwD7-VrAKTOdv-14" target="6jt31sQKwD7-VrAKTOdv-5">
          <mxGeometry relative="1" as="geometry" />
        </mxCell>
        <mxCell id="6jt31sQKwD7-VrAKTOdv-14" value="Fazer pagamento pelo meio preferencial" style="points=[[0.25,0,0],[0.5,0,0],[0.75,0,0],[1,0.25,0],[1,0.5,0],[1,0.75,0],[0.75,1,0],[0.5,1,0],[0.25,1,0],[0,0.75,0],[0,0.5,0],[0,0.25,0]];shape=mxgraph.bpmn.task;whiteSpace=wrap;rectStyle=rounded;size=10;html=1;container=1;expand=0;collapsible=0;taskMarker=abstract;" vertex="1" parent="6jt31sQKwD7-VrAKTOdv-1">
          <mxGeometry x="310" y="50" width="140" height="50" as="geometry" />
        </mxCell>
        <mxCell id="6jt31sQKwD7-VrAKTOdv-15" style="edgeStyle=orthogonalEdgeStyle;rounded=0;orthogonalLoop=1;jettySize=auto;html=1;exitX=1;exitY=0.5;exitDx=0;exitDy=0;exitPerimeter=0;entryX=0;entryY=0.5;entryDx=0;entryDy=0;entryPerimeter=0;" edge="1" parent="6jt31sQKwD7-VrAKTOdv-1" source="6jt31sQKwD7-VrAKTOdv-3" target="6jt31sQKwD7-VrAKTOdv-14">
          <mxGeometry relative="1" as="geometry" />
        </mxCell>
        <mxCell id="6jt31sQKwD7-VrAKTOdv-7" value="Trabalhador" style="swimlane;startSize=20;horizontal=0;html=1;whiteSpace=wrap;" vertex="1" parent="1">
          <mxGeometry x="20" y="170" width="830" height="150" as="geometry">
            <mxRectangle x="10" y="10" width="40" height="80" as="alternateBounds" />
          </mxGeometry>
        </mxCell>
        <mxCell id="6jt31sQKwD7-VrAKTOdv-9" value="" style="points=[[0.145,0.145,0],[0.5,0,0],[0.855,0.145,0],[1,0.5,0],[0.855,0.855,0],[0.5,1,0],[0.145,0.855,0],[0,0.5,0]];shape=mxgraph.bpmn.event;html=1;verticalLabelPosition=bottom;labelBackgroundColor=#ffffff;verticalAlign=top;align=center;perimeter=ellipsePerimeter;outlineConnect=0;aspect=fixed;outline=standard;symbol=general;fillColor=#d5e8d4;strokeColor=#82b366;" vertex="1" parent="6jt31sQKwD7-VrAKTOdv-7">
          <mxGeometry x="30" y="55" width="40" height="40" as="geometry" />
        </mxCell>
        <mxCell id="6jt31sQKwD7-VrAKTOdv-11" value="" style="points=[[0.145,0.145,0],[0.5,0,0],[0.855,0.145,0],[1,0.5,0],[0.855,0.855,0],[0.5,1,0],[0.145,0.855,0],[0,0.5,0]];shape=mxgraph.bpmn.event;html=1;verticalLabelPosition=bottom;labelBackgroundColor=#ffffff;verticalAlign=top;align=center;perimeter=ellipsePerimeter;outlineConnect=0;aspect=fixed;outline=standard;symbol=general;fillColor=#f8cecc;strokeColor=#b85450;" vertex="1" parent="6jt31sQKwD7-VrAKTOdv-7">
          <mxGeometry x="730" y="55" width="40" height="40" as="geometry" />
        </mxCell>
        <mxCell id="6jt31sQKwD7-VrAKTOdv-17" value="Receber fundos pela conta Bico" style="points=[[0.25,0,0],[0.5,0,0],[0.75,0,0],[1,0.25,0],[1,0.5,0],[1,0.75,0],[0.75,1,0],[0.5,1,0],[0.25,1,0],[0,0.75,0],[0,0.5,0],[0,0.25,0]];shape=mxgraph.bpmn.task;whiteSpace=wrap;rectStyle=rounded;size=10;html=1;container=1;expand=0;collapsible=0;taskMarker=abstract;" vertex="1" parent="6jt31sQKwD7-VrAKTOdv-7">
          <mxGeometry x="310" y="50" width="140" height="50" as="geometry" />
        </mxCell>
        <mxCell id="6jt31sQKwD7-VrAKTOdv-18" style="edgeStyle=orthogonalEdgeStyle;rounded=0;orthogonalLoop=1;jettySize=auto;html=1;exitX=1;exitY=0.5;exitDx=0;exitDy=0;exitPerimeter=0;entryX=0;entryY=0.5;entryDx=0;entryDy=0;entryPerimeter=0;" edge="1" parent="6jt31sQKwD7-VrAKTOdv-7" source="6jt31sQKwD7-VrAKTOdv-9" target="6jt31sQKwD7-VrAKTOdv-17">
          <mxGeometry relative="1" as="geometry" />
        </mxCell>
        <mxCell id="6jt31sQKwD7-VrAKTOdv-19" style="edgeStyle=orthogonalEdgeStyle;rounded=0;orthogonalLoop=1;jettySize=auto;html=1;entryX=0;entryY=0.5;entryDx=0;entryDy=0;entryPerimeter=0;" edge="1" parent="6jt31sQKwD7-VrAKTOdv-7" source="6jt31sQKwD7-VrAKTOdv-17" target="6jt31sQKwD7-VrAKTOdv-11">
          <mxGeometry relative="1" as="geometry" />
        </mxCell>
        <mxCell id="6jt31sQKwD7-VrAKTOdv-20" style="edgeStyle=orthogonalEdgeStyle;rounded=0;orthogonalLoop=1;jettySize=auto;html=1;entryX=0.5;entryY=0;entryDx=0;entryDy=0;entryPerimeter=0;dashed=1;" edge="1" parent="1" source="6jt31sQKwD7-VrAKTOdv-14" target="6jt31sQKwD7-VrAKTOdv-17">
          <mxGeometry relative="1" as="geometry" />
        </mxCell>
      </root>
    </mxGraphModel>
  </diagram>
</mxfile>
